<?xml version="1.0" encoding="UTF-8" standalone="no"?>
<!DOCTYPE svg PUBLIC "-//W3C//DTD SVG 1.1//EN" "http://www.w3.org/Graphics/SVG/1.1/DTD/svg11.dtd">
<svg width="100%" height="100%" viewBox="0 0 7786 1628" version="1.1" xmlns="http://www.w3.org/2000/svg" xmlns:xlink="http://www.w3.org/1999/xlink" xml:space="preserve" xmlns:serif="http://www.serif.com/" style="fill-rule:evenodd;clip-rule:evenodd;stroke-linejoin:round;stroke-miterlimit:2;">
    <g transform="matrix(1,0,0,1,-764.807,-1705.69)">
        <g id="Layer-1" serif:id="Layer 1" transform="matrix(4.16667,0,0,4.16667,0,0)">
            <g transform="matrix(1,0,0,1,-263.662,-392.563)">
                <text x="820.729px" y="1131.34px" style="font-family:'CenturyGothic-Bold', 'Century Gothic', sans-serif;font-weight:700;font-size:288px;fill:rgb(255,69,154);">G<tspan x="1060.95px 1272.35px 1529.87px 1677.98px 1854.92px 2003.03px 2179.97px " y="1131.34px 1131.34px 1131.34px 1131.34px 1131.34px 1131.34px 1131.34px ">AMEKEYS</tspan></text>
            </g>
            <g transform="matrix(0,-1,-1,0,362.901,409.366)">
                <path d="M-12.865,-12.866C-5.761,-12.866 -0,-7.106 -0,-0C-0,7.104 -5.761,12.865 -12.865,12.865C-19.97,12.865 -25.73,7.104 -25.73,-0C-25.73,-7.106 -19.97,-12.866 -12.865,-12.866" style="fill:rgb(247,178,53);fill-rule:nonzero;"/>
            </g>
            <g transform="matrix(0,-1,-1,0,196.418,457.429)">
                <path d="M-12.865,-12.865C-5.76,-12.865 -0,-7.105 -0,0.001C-0,7.105 -5.76,12.865 -12.865,12.865C-19.97,12.865 -25.729,7.105 -25.729,0.001C-25.729,-7.105 -19.97,-12.865 -12.865,-12.865" style="fill:rgb(247,178,53);fill-rule:nonzero;"/>
            </g>
            <g transform="matrix(0,1,1,0,529.385,457.429)">
                <path d="M12.865,-12.865C5.76,-12.865 0,-7.105 0,0.001C0,7.104 5.76,12.865 12.865,12.865C19.97,12.865 25.729,7.104 25.729,0.001C25.729,-7.105 19.97,-12.865 12.865,-12.865" style="fill:rgb(247,178,53);fill-rule:nonzero;"/>
            </g>
            <g transform="matrix(1,0,0,1,258.663,446.387)">
                <path d="M0,153.53C0.16,153.393 0.314,153.244 0.474,153.109C17.964,138.318 33.47,131.428 49.271,131.428C65.09,131.428 76.511,138.337 85.688,143.887C93.611,148.678 98.034,151.178 104.238,151.178C110.442,151.178 114.866,148.678 122.789,143.887C131.966,138.335 143.387,131.428 159.203,131.428C175.006,131.428 190.511,138.318 208.003,153.109C208.163,153.244 208.318,153.393 208.477,153.531L262.331,59.392C264.548,55.515 264.013,50.652 261.005,47.35C257.996,44.05 253.203,43.065 249.138,44.915L159.62,85.632L113.15,5.144C111.313,1.96 107.916,-0.001 104.24,-0.001C100.563,-0.001 97.166,1.96 95.326,5.144L48.858,85.632L-40.658,44.915C-44.724,43.066 -49.518,44.05 -52.527,47.35C-55.535,50.652 -56.07,55.515 -53.852,59.392L0,153.53Z" style="fill:rgb(247,178,53);fill-rule:nonzero;"/>
            </g>
            <g transform="matrix(1,0,0,1,445.73,723.519)">
                <path d="M0,-35.315C-5.228,-35.315 -9.464,-39.552 -9.464,-44.78C-9.464,-50.009 -5.228,-54.249 0,-54.249C5.23,-54.249 9.469,-50.009 9.469,-44.78C9.469,-39.552 5.23,-35.315 0,-35.315M-22.273,-57.595C-27.5,-57.595 -31.738,-61.834 -31.738,-67.063C-31.738,-72.291 -27.5,-76.528 -22.273,-76.528C-17.045,-76.528 -12.807,-72.291 -12.807,-67.063C-12.807,-61.834 -17.045,-57.595 -22.273,-57.595M-22.273,-13.049C-27.5,-13.049 -31.738,-17.288 -31.738,-22.515C-31.738,-27.743 -27.5,-31.982 -22.273,-31.982C-17.045,-31.982 -12.807,-27.743 -12.807,-22.515C-12.807,-17.288 -17.045,-13.049 -22.273,-13.049M-44.545,-35.315C-49.775,-35.315 -54.014,-39.552 -54.014,-44.78C-54.014,-50.009 -49.775,-54.249 -44.545,-54.249C-39.319,-54.249 -35.081,-50.009 -35.081,-44.78C-35.081,-39.552 -39.319,-35.315 -44.545,-35.315M-121.11,-35.321L-133.917,-35.321L-133.917,-22.515C-133.917,-17.288 -138.156,-13.049 -143.384,-13.049C-148.611,-13.049 -152.85,-17.288 -152.85,-22.515L-152.85,-35.321L-165.657,-35.321C-170.886,-35.321 -175.125,-39.561 -175.125,-44.789C-175.125,-50.018 -170.886,-54.255 -165.657,-54.255L-152.85,-54.255L-152.85,-67.063C-152.85,-72.291 -148.611,-76.528 -143.384,-76.528C-138.156,-76.528 -133.917,-72.291 -133.917,-67.063L-133.917,-54.255L-121.11,-54.255C-115.881,-54.255 -111.645,-50.018 -111.645,-44.789C-111.645,-39.561 -115.881,-35.321 -121.11,-35.321M4.445,-104.523C-39.84,-141.971 -46.069,-100.415 -82.828,-100.415C-119.587,-100.415 -125.817,-141.971 -170.103,-104.523C-214.389,-67.072 -239.584,24.368 -213.64,65.514C-187.693,106.656 -145.46,19.512 -82.828,19.512C-20.195,19.512 22.035,106.656 47.982,65.514C73.929,24.368 48.733,-67.072 4.445,-104.523" style="fill:rgb(255,69,154);fill-rule:nonzero;"/>
            </g>
        </g>
    </g>
</svg>
