<?xml version="1.0" encoding="UTF-8" standalone="no"?>
<!DOCTYPE svg PUBLIC "-//W3C//DTD SVG 1.1//EN" "http://www.w3.org/Graphics/SVG/1.1/DTD/svg11.dtd">
<svg width="100%" height="100%" viewBox="0 0 3800 1341" version="1.1" xmlns="http://www.w3.org/2000/svg" xmlns:xlink="http://www.w3.org/1999/xlink" xml:space="preserve" xmlns:serif="http://www.serif.com/" style="fill-rule:evenodd;clip-rule:evenodd;stroke-linejoin:round;stroke-miterlimit:2;">
    <g transform="matrix(1,0,0,1,-323.989,-2124.83)">
        <g transform="matrix(0.46618,0,0,0.467614,1098.34,2677.88)">
            <path d="M0,-364.199C-0.406,-342.597 23.145,-277.949 41.809,-252.601C47.766,-241.656 50.633,-229.558 48.664,-215.644C28.184,-208.754 14.031,-200.621 2.699,-191.125L-30.898,-210.324C-7.043,-139.304 20.902,-72.758 45,-1C46.629,12.184 26.723,27.156 16.34,32.817C-0.187,28.547 -9.266,25.231 -30.371,14.957C-69.129,-1.801 -72.129,30.133 -70.672,36.453C-71.895,31.528 -87.078,23.16 -87.723,18.852C-92.035,-9.25 -77.137,-22.558 -61.781,-28.488L-28.641,-20.59L-47.918,-46.816C-53.145,-79.113 -63.461,-170.289 -78.695,-207.898L-107.016,-176.433C-194.52,-201.562 -289.945,-204.09 -328.125,-196.097C-299.059,-220.515 -276.406,-232.715 -258.539,-239.297C-263.797,-270.722 -281.07,-315.515 -317.398,-352.117C-273.387,-349.547 -219.309,-341.265 -186,-333.215C-212.691,-359.125 -275.762,-386.984 -326.137,-400.652C-212.844,-400.043 -130.414,-357.773 -57.828,-330.89C-31.137,-351.605 -12.184,-363.043 0,-364.199" style="fill:white;"/>
        </g>
        <g transform="matrix(0.46618,0,0,0.467614,1011.47,2690.61)">
            <path d="M0,-126.277C6.937,-111.328 11.539,-98.015 13.996,-85.105C19.699,-55.078 -70.758,36.379 -100.84,31.625C-102.555,27.606 -179.266,-60.957 -180.676,-64.851C-181.184,-81.754 -157.512,-130.109 -145.855,-135.726L-163.301,-162.656C-104.863,-134.965 -60.27,-122.187 0,-126.277" style="fill:white;"/>
        </g>
        <g transform="matrix(0.46618,0,0,0.467614,1128.07,2851.15)">
            <path d="M0,-159.945C8.688,-227.028 -4.613,-261.16 -40.281,-270.227C-51.328,-273.035 -64.477,-259.785 -77.609,-256.051C-109.441,-277.32 -141.527,-282.633 -173.598,-287.926C-255.977,-273.793 -297.633,-228.293 -337.199,-175.488C-388.258,-183.422 -449.629,-223.981 -496.75,-267.438C-495.817,-270.465 -496.29,-290.004 -495.934,-305.867C-531.04,-334.051 -555.228,-359.836 -577.415,-390.07C-571.22,-308.957 -576.532,-254.442 -576.423,-227.578C-532.384,-164.527 -493.747,-120.582 -463.797,-93.652C-453.735,-102.347 -436.496,-122.004 -429.844,-130.574C-451.497,-141.781 -514.04,-200.899 -534.505,-248.805C-510.407,-220.539 -436.801,-159.945 -364.418,-138.472C-404.105,-84.437 -445.879,-32.535 -533.485,3.258C-508.271,-0.347 -485.399,-5.437 -464.563,-11.707C-317.316,-56.035 -277.934,-154.031 -186.766,-208.125C-147.246,-224.594 -103.148,-222.106 -75.117,-223.676C-30.457,-199.871 -11.57,-184.449 0,-159.945M-47.969,-108.711C-36.82,18.938 -6.566,155.946 37.246,230.125C-34.734,222.168 -211.301,137.16 -359.055,12.16C-301.738,-27.105 -270.211,-44.277 -216.391,-107.718C-209.195,-109.027 -202.273,-110.121 -195.555,-111.043C-190.973,-43.816 -171.309,54.45 -145.855,116.657C-157.887,21.16 -157.344,-82.625 -147.723,-114.98C-133.758,-115.328 -126.598,-115.297 -113.988,-114.558C-113.293,-63.636 -89.777,102.723 -43.574,165.41C-63.73,97.075 -82.75,-68.539 -70.449,-110.722C-64.953,-110.164 -53.5,-109.261 -47.969,-108.711M-57.621,-181.918C-60.93,-172.093 -64.223,-162.254 -67.531,-152.429C-95.938,-160.437 -167.863,-160.226 -197.828,-149.222C-180.926,-194.84 -98.445,-201.805 -57.621,-181.918" style="fill:white;"/>
        </g>
        <g transform="matrix(0.46618,0,0,0.467614,1007.04,3197.17)">
            <path d="M0,-1825.34C51.617,-1772.99 75.777,-1706.35 85.215,-1661.87C56.129,-1707.52 0.594,-1765.17 -93.66,-1830.89C-227.504,-1865.82 -464.45,-1861.99 -585.56,-1795.41C-511.731,-1827.52 -303.47,-1777.74 -257.876,-1751.88C-348.907,-1770.75 -580.849,-1752.96 -720.724,-1683.66C-828.267,-1577.94 -972.212,-1389.59 -1036,-1201.5C-947.837,-1315.81 -723.907,-1498.32 -625.587,-1542.1C-692.864,-1477.67 -911.079,-1249.76 -1046.44,-997.082C-915.294,-1132.44 -699.353,-1316.24 -552.04,-1390.98C-674.454,-1293.95 -835.411,-1096.66 -929.446,-958.828C-967.071,-799.668 -1006.43,-582.277 -1029.71,-425.629C-912.552,-633.281 -789.493,-817.289 -747.415,-883.855C-856.771,-574.336 -1001.29,-74.687 -1019.61,40.477C-834.364,-303.328 -436.665,-838.066 -373.274,-891.711L-372.681,-984.66C-463.646,-904.851 -578.349,-765.222 -684.134,-635.894C-592.974,-823.543 -420.751,-1031.8 -374.97,-1096.64C-373.802,-1114.74 -373.005,-1157.66 -379.595,-1186.4C-434.782,-1148.55 -576.634,-992.637 -670.591,-869.203C-608.032,-988.785 -481.536,-1173.57 -400.356,-1267.93C-402.595,-1277.31 -410.044,-1314.56 -410.45,-1324.23C-411.485,-1347.93 -405.938,-1372.64 -388.868,-1398.99C-352.896,-1443.43 -299.497,-1452.2 -213.965,-1409.64C-206.293,-1405.83 -206.364,-1435.92 -206.567,-1463.49C-206.719,-1484.25 -206.958,-1503.58 -204.02,-1505.89C-272.739,-1533.4 -370.575,-1547.44 -504.513,-1514.16C-425.763,-1564.07 -294.478,-1598.19 -180.605,-1581.04C-200.711,-1600.79 -251.091,-1648.7 -277.388,-1653.94C-134.875,-1660.52 49.293,-1566.37 128.82,-1516.73C145.855,-1581.31 172.191,-1627.15 201.02,-1682.48C163.129,-1736.5 107.492,-1812.31 0,-1825.34" style="fill:white;"/>
        </g>
        <g transform="matrix(0.46618,0,0,0.467614,842.519,2648.87)">
            <path d="M0,-193.601C-36.41,-161.21 -1.414,-99.609 21.773,-70.999C32.18,-58.132 42.516,-42.816 47.859,-20.988C64.156,34.387 159.907,-37.117 109.598,-92.144C120.829,-58.039 94.633,-39.484 73.965,-42.519C61.688,-42.3 64.055,-56.91 40.816,-76.984C32.852,-83.878 47.809,-95.351 37.465,-105.683C24.793,-118.351 12.152,-148.339 31.273,-167.199C26.117,-170.593 12.305,-168.472 3.531,-162.746C30.629,-205.343 90.762,-178.753 106.34,-153.863C95.176,-204.292 38.73,-227.988 0,-193.601" style="fill:white;"/>
        </g>
        <g transform="matrix(0.46618,0,0,0.467614,986.34,3008.4)">
            <path d="M0,-184.933C-90.355,-103.589 -193.247,-21.038 -261.052,46.559L-51.516,-231.492L0,-184.933Z" style="fill:white;"/>
        </g>
        <g transform="matrix(0.46618,0,0,0.467614,999.89,3370.42)">
            <path d="M0,-638.633L-79.543,-507.067C129.195,-632.696 618.988,-806.445 865.344,-839.637C652.652,-837.668 293.035,-774.715 137.527,-719.875L201.613,-841.738C-130.039,-731.246 -364.231,-611.793 -693.38,-391.516L-623.599,-559.852C-857.739,-383.047 -1151.61,-149.86 -1449.87,203.105C-1297.2,62.918 -1001.37,-155.934 -848.692,-266.227L-922.478,-109.391C-575.36,-362.129 -224.993,-554.305 0,-638.633" style="fill:rgb(255,69,154);"/>
        </g>
        <g transform="matrix(1.93404,0,0,1.94,1284.97,2978.35)">
            <text x="0px" y="0px" style="font-family:'Poppins-SemiBold', 'Poppins';font-weight:600;font-size:288px;fill:rgb(255,69,154);">KEYSGOD</text>
        </g>
    </g>
</svg>
